<svg xmlns="http://www.w3.org/2000/svg" viewBox="0 0 64 64" role="img" aria-label="PropData Australia"><defs><linearGradient id="bg" x1="8" y1="4" x2="56" y2="60" gradientUnits="userSpaceOnUse"><stop stop-color="#071d2f"/><stop offset="1" stop-color="#03111d"/></linearGradient><linearGradient id="au" x1="12" y1="10" x2="52" y2="54" gradientUnits="userSpaceOnUse"><stop stop-color="#74f0b2"/><stop offset="1" stop-color="#32d17d"/></linearGradient><filter id="glow" x="-50%" y="-50%" width="200%" height="200%"><feGaussianBlur stdDeviation="1.3" result="b"/><feMerge><feMergeNode in="b"/><feMergeNode in="SourceGraphic"/></feMerge></filter></defs><rect width="64" height="64" rx="16" fill="url(#bg)"/><rect x="1" y="1" width="62" height="62" rx="15" fill="none" stroke="#9bd9c0" stroke-opacity=".16"/><path d="M13.5 34.4 16 28l5.4-2.7 2.3-5.4 6.2-1.8 4.8 1.9 4-.9 4.8 3.9 4.7 1.2 2.6 5.2-2.1 3.5.8 4.9-4.3 2.9-2.3 5-5.7-.1-4.5 2.4-3.6-2.3-5 .9-2.5-3.9-4.1-1.6-2.4-4.1Z" fill="url(#au)" opacity=".94" filter="url(#glow)"/><path d="m42.6 49.4 2.2 1.1.2 2.6-2.2 1.6-1.8-1.9.5-2.1Z" fill="#74f0b2"/><path d="M22.5 41.5V23.8h10.8c5.9 0 9.2 3.1 9.2 8s-3.3 8-9.2 8h-4.6v1.7h-6.2Zm6.2-7h4.2c2 0 3.2-.9 3.2-2.6s-1.2-2.6-3.2-2.6h-4.2v5.2Z" fill="#04131f"/><circle cx="47.8" cy="16.7" r="2.2" fill="#f5c766"/></svg>